<?xml version="1.0" encoding="UTF-8" standalone="no"?>
<!DOCTYPE svg PUBLIC "-//W3C//DTD SVG 1.1//EN"
 "http://www.w3.org/Graphics/SVG/1.1/DTD/svg11.dtd">
<!-- Generated by graphviz version 2.44.0 (0)
 -->
<!-- Title: systemd Pages: 1 -->
<svg width="1026pt" height="692pt"
 viewBox="0.00 0.00 1025.74 692.00" xmlns="http://www.w3.org/2000/svg" xmlns:xlink="http://www.w3.org/1999/xlink">
<g id="graph0" class="graph" transform="scale(1 1) rotate(0) translate(4 688)">
<title>systemd</title>
<polygon fill="white" stroke="transparent" points="-4,4 -4,-688 1021.74,-688 1021.74,4 -4,4"/>
<!-- opaal.service -->
<g id="node1" class="node">
<title>opaal.service</title>
<ellipse fill="none" stroke="black" cx="921" cy="-594" rx="70.39" ry="18"/>
<text text-anchor="middle" x="921" y="-590.3" font-family="Times-Roman" font-size="14.00">opaal.service</text>
</g>
<!-- opaal&#45;idp.service -->
<g id="node2" class="node">
<title>opaal&#45;idp.service</title>
<ellipse fill="none" stroke="black" cx="930" cy="-306" rx="87.99" ry="18"/>
<text text-anchor="middle" x="930" y="-302.3" font-family="Times-Roman" font-size="14.00">opaal&#45;idp.service</text>
</g>
<!-- opaal.service&#45;&gt;opaal&#45;idp.service -->
<g id="edge1" class="edge">
<title>opaal.service&#45;&gt;opaal&#45;idp.service</title>
<path fill="none" stroke="#a8a8a8" d="M921.54,-575.97C923.04,-528.29 927.29,-393.18 929.13,-334.63"/>
<polygon fill="#a8a8a8" stroke="#a8a8a8" points="932.64,-334.41 929.46,-324.31 925.64,-334.19 932.64,-334.41"/>
</g>
<!-- hydra&#45;gen&#45;jwks.service -->
<g id="node14" class="node">
<title>hydra&#45;gen&#45;jwks.service</title>
<ellipse fill="none" stroke="black" cx="670" cy="-234" rx="116.18" ry="18"/>
<text text-anchor="middle" x="670" y="-230.3" font-family="Times-Roman" font-size="14.00">hydra&#45;gen&#45;jwks.service</text>
</g>
<!-- opaal&#45;idp.service&#45;&gt;hydra&#45;gen&#45;jwks.service -->
<g id="edge19" class="edge">
<title>opaal&#45;idp.service&#45;&gt;hydra&#45;gen&#45;jwks.service</title>
<path fill="none" stroke="#a8a8a8" d="M878.94,-291.25C837.83,-280.19 779.77,-264.55 735.29,-252.58"/>
<polygon fill="#a8a8a8" stroke="#a8a8a8" points="736,-249.15 725.44,-249.93 734.18,-255.91 736,-249.15"/>
</g>
<!-- coresmd&#45;coredhcp.service -->
<g id="node3" class="node">
<title>coresmd&#45;coredhcp.service</title>
<ellipse fill="none" stroke="black" cx="595" cy="-594" rx="129.18" ry="18"/>
<text text-anchor="middle" x="595" y="-590.3" font-family="Times-Roman" font-size="14.00">coresmd&#45;coredhcp.service</text>
</g>
<!-- haproxy.service -->
<g id="node4" class="node">
<title>haproxy.service</title>
<ellipse fill="none" stroke="black" cx="427" cy="-522" rx="81.49" ry="18"/>
<text text-anchor="middle" x="427" y="-518.3" font-family="Times-Roman" font-size="14.00">haproxy.service</text>
</g>
<!-- coresmd&#45;coredhcp.service&#45;&gt;haproxy.service -->
<g id="edge2" class="edge">
<title>coresmd&#45;coredhcp.service&#45;&gt;haproxy.service</title>
<path fill="none" stroke="#a8a8a8" d="M556.04,-576.76C531.17,-566.41 498.84,-552.93 472.75,-542.06"/>
<polygon fill="#a8a8a8" stroke="#a8a8a8" points="474.03,-538.8 463.45,-538.19 471.34,-545.27 474.03,-538.8"/>
</g>
<!-- cloud&#45;init&#45;server.service -->
<g id="node5" class="node">
<title>cloud&#45;init&#45;server.service</title>
<ellipse fill="none" stroke="black" cx="147" cy="-450" rx="118.88" ry="18"/>
<text text-anchor="middle" x="147" y="-446.3" font-family="Times-Roman" font-size="14.00">cloud&#45;init&#45;server.service</text>
</g>
<!-- haproxy.service&#45;&gt;cloud&#45;init&#45;server.service -->
<g id="edge7" class="edge">
<title>haproxy.service&#45;&gt;cloud&#45;init&#45;server.service</title>
<path fill="none" stroke="#a8a8a8" d="M375.32,-508.08C330.38,-496.84 264.91,-480.48 215.6,-468.15"/>
<polygon fill="#a8a8a8" stroke="#a8a8a8" points="216.19,-464.69 205.64,-465.66 214.5,-471.48 216.19,-464.69"/>
</g>
<!-- smd.service -->
<g id="node6" class="node">
<title>smd.service</title>
<ellipse fill="none" stroke="black" cx="386" cy="-306" rx="65.79" ry="18"/>
<text text-anchor="middle" x="386" y="-302.3" font-family="Times-Roman" font-size="14.00">smd.service</text>
</g>
<!-- haproxy.service&#45;&gt;smd.service -->
<g id="edge9" class="edge">
<title>haproxy.service&#45;&gt;smd.service</title>
<path fill="none" stroke="#a8a8a8" d="M373.03,-508.43C351.36,-500.52 328.39,-487.9 315,-468 288.19,-428.15 288.91,-402.65 311,-360 318.15,-346.2 330.73,-335.22 343.57,-326.92"/>
<polygon fill="#a8a8a8" stroke="#a8a8a8" points="345.66,-329.74 352.44,-321.6 342.06,-323.74 345.66,-329.74"/>
</g>
<!-- acme&#45;deploy.service -->
<g id="node9" class="node">
<title>acme&#45;deploy.service</title>
<ellipse fill="none" stroke="black" cx="427" cy="-450" rx="102.88" ry="18"/>
<text text-anchor="middle" x="427" y="-446.3" font-family="Times-Roman" font-size="14.00">acme&#45;deploy.service</text>
</g>
<!-- haproxy.service&#45;&gt;acme&#45;deploy.service -->
<g id="edge5" class="edge">
<title>haproxy.service&#45;&gt;acme&#45;deploy.service</title>
<path fill="none" stroke="black" d="M421.08,-503.7C420.29,-495.98 420.06,-486.71 420.4,-478.11"/>
<polygon fill="black" stroke="black" points="423.9,-478.32 421.1,-468.1 416.92,-477.84 423.9,-478.32"/>
</g>
<!-- haproxy.service&#45;&gt;acme&#45;deploy.service -->
<g id="edge8" class="edge">
<title>haproxy.service&#45;&gt;acme&#45;deploy.service</title>
<path fill="none" stroke="#a8a8a8" d="M432.92,-503.7C433.71,-495.98 433.94,-486.71 433.6,-478.11"/>
<polygon fill="#a8a8a8" stroke="#a8a8a8" points="437.08,-477.84 432.9,-468.1 430.1,-478.32 437.08,-477.84"/>
</g>
<!-- bss.service -->
<g id="node10" class="node">
<title>bss.service</title>
<ellipse fill="none" stroke="black" cx="669" cy="-450" rx="61.99" ry="18"/>
<text text-anchor="middle" x="669" y="-446.3" font-family="Times-Roman" font-size="14.00">bss.service</text>
</g>
<!-- haproxy.service&#45;&gt;bss.service -->
<g id="edge6" class="edge">
<title>haproxy.service&#45;&gt;bss.service</title>
<path fill="none" stroke="#a8a8a8" d="M474.23,-507.34C515.24,-495.48 574.52,-478.33 616.89,-466.07"/>
<polygon fill="#a8a8a8" stroke="#a8a8a8" points="618.11,-469.36 626.74,-463.22 616.16,-462.64 618.11,-469.36"/>
</g>
<!-- cloud&#45;init&#45;server.service&#45;&gt;smd.service -->
<g id="edge3" class="edge">
<title>cloud&#45;init&#45;server.service&#45;&gt;smd.service</title>
<path fill="none" stroke="#a8a8a8" d="M169.56,-432.24C195.17,-413.55 238.54,-382.94 278,-360 299.2,-347.68 323.67,-335.51 343.95,-325.95"/>
<polygon fill="#a8a8a8" stroke="#a8a8a8" points="345.66,-329.01 353.24,-321.61 342.7,-322.67 345.66,-329.01"/>
</g>
<!-- smd&#45;init.service -->
<g id="node13" class="node">
<title>smd&#45;init.service</title>
<ellipse fill="none" stroke="black" cx="386" cy="-162" rx="83.39" ry="18"/>
<text text-anchor="middle" x="386" y="-158.3" font-family="Times-Roman" font-size="14.00">smd&#45;init.service</text>
</g>
<!-- smd.service&#45;&gt;smd&#45;init.service -->
<g id="edge14" class="edge">
<title>smd.service&#45;&gt;smd&#45;init.service</title>
<path fill="none" stroke="black" d="M386,-287.87C386,-263.67 386,-219.21 386,-190.39"/>
<polygon fill="black" stroke="black" points="389.5,-190.19 386,-180.19 382.5,-190.19 389.5,-190.19"/>
</g>
<!-- smd.service&#45;&gt;hydra&#45;gen&#45;jwks.service -->
<g id="edge15" class="edge">
<title>smd.service&#45;&gt;hydra&#45;gen&#45;jwks.service</title>
<path fill="none" stroke="#a8a8a8" d="M433.22,-293.36C479,-282.08 548.99,-264.83 601.01,-252"/>
<polygon fill="#a8a8a8" stroke="#a8a8a8" points="601.96,-255.37 610.83,-249.58 600.29,-248.58 601.96,-255.37"/>
</g>
<!-- hydra&#45;migrate.service -->
<g id="node7" class="node">
<title>hydra&#45;migrate.service</title>
<ellipse fill="none" stroke="black" cx="635" cy="-90" rx="110.48" ry="18"/>
<text text-anchor="middle" x="635" y="-86.3" font-family="Times-Roman" font-size="14.00">hydra&#45;migrate.service</text>
</g>
<!-- postgres.service -->
<g id="node8" class="node">
<title>postgres.service</title>
<ellipse fill="none" stroke="black" cx="497" cy="-18" rx="85.29" ry="18"/>
<text text-anchor="middle" x="497" y="-14.3" font-family="Times-Roman" font-size="14.00">postgres.service</text>
</g>
<!-- hydra&#45;migrate.service&#45;&gt;postgres.service -->
<g id="edge4" class="edge">
<title>hydra&#45;migrate.service&#45;&gt;postgres.service</title>
<path fill="none" stroke="black" d="M602.99,-72.76C583.43,-62.84 558.24,-50.07 537.33,-39.46"/>
<polygon fill="black" stroke="black" points="538.86,-36.31 528.36,-34.91 535.69,-42.55 538.86,-36.31"/>
</g>
<!-- acme&#45;register.service -->
<g id="node12" class="node">
<title>acme&#45;register.service</title>
<ellipse fill="none" stroke="black" cx="427" cy="-378" rx="107.48" ry="18"/>
<text text-anchor="middle" x="427" y="-374.3" font-family="Times-Roman" font-size="14.00">acme&#45;register.service</text>
</g>
<!-- acme&#45;deploy.service&#45;&gt;acme&#45;register.service -->
<g id="edge12" class="edge">
<title>acme&#45;deploy.service&#45;&gt;acme&#45;register.service</title>
<path fill="none" stroke="black" d="M427,-431.7C427,-423.98 427,-414.71 427,-406.11"/>
<polygon fill="black" stroke="black" points="430.5,-406.1 427,-396.1 423.5,-406.1 430.5,-406.1"/>
</g>
<!-- bss.service&#45;&gt;smd.service -->
<g id="edge18" class="edge">
<title>bss.service&#45;&gt;smd.service</title>
<path fill="none" stroke="#a8a8a8" d="M640.65,-434C622.89,-424.1 599.88,-410.36 581,-396 562.48,-381.92 562.93,-372 543,-360 512.98,-341.92 475.98,-329.05 445.44,-320.52"/>
<polygon fill="#a8a8a8" stroke="#a8a8a8" points="446.34,-317.14 435.77,-317.9 444.51,-323.89 446.34,-317.14"/>
</g>
<!-- bss&#45;init.service -->
<g id="node11" class="node">
<title>bss&#45;init.service</title>
<ellipse fill="none" stroke="black" cx="669" cy="-378" rx="79.09" ry="18"/>
<text text-anchor="middle" x="669" y="-374.3" font-family="Times-Roman" font-size="14.00">bss&#45;init.service</text>
</g>
<!-- bss.service&#45;&gt;bss&#45;init.service -->
<g id="edge16" class="edge">
<title>bss.service&#45;&gt;bss&#45;init.service</title>
<path fill="none" stroke="black" d="M669,-431.7C669,-423.98 669,-414.71 669,-406.11"/>
<polygon fill="black" stroke="black" points="672.5,-406.1 669,-396.1 665.5,-406.1 672.5,-406.1"/>
</g>
<!-- bss.service&#45;&gt;hydra&#45;gen&#45;jwks.service -->
<g id="edge17" class="edge">
<title>bss.service&#45;&gt;hydra&#45;gen&#45;jwks.service</title>
<path fill="none" stroke="#a8a8a8" d="M708.2,-435.79C726.48,-427.44 746.47,-414.63 757,-396 764.87,-382.07 761.79,-375.27 757,-360 744.7,-320.79 715.26,-283.11 694.04,-259.56"/>
<polygon fill="#a8a8a8" stroke="#a8a8a8" points="696.54,-257.11 687.19,-252.14 691.39,-261.86 696.54,-257.11"/>
</g>
<!-- bss&#45;init.service&#45;&gt;smd.service -->
<g id="edge11" class="edge">
<title>bss&#45;init.service&#45;&gt;smd.service</title>
<path fill="none" stroke="#a8a8a8" d="M617.42,-364.24C568.1,-352.04 493.89,-333.69 442.87,-321.07"/>
<polygon fill="#a8a8a8" stroke="#a8a8a8" points="443.54,-317.63 432.99,-318.62 441.86,-324.42 443.54,-317.63"/>
</g>
<!-- bss&#45;init.service&#45;&gt;postgres.service -->
<g id="edge10" class="edge">
<title>bss&#45;init.service&#45;&gt;postgres.service</title>
<path fill="none" stroke="black" d="M626.04,-362.85C575.1,-343.05 497,-301.8 497,-235 497,-235 497,-235 497,-161 497,-121 497,-74.65 497,-46.08"/>
<polygon fill="black" stroke="black" points="500.5,-46.05 497,-36.05 493.5,-46.05 500.5,-46.05"/>
</g>
<!-- smd&#45;init.service&#45;&gt;postgres.service -->
<g id="edge13" class="edge">
<title>smd&#45;init.service&#45;&gt;postgres.service</title>
<path fill="none" stroke="black" d="M399.17,-144.15C418.61,-119.28 455.12,-72.57 477.62,-43.79"/>
<polygon fill="black" stroke="black" points="480.45,-45.86 483.85,-35.82 474.93,-41.55 480.45,-45.86"/>
</g>
<!-- hydra.service -->
<g id="node16" class="node">
<title>hydra.service</title>
<ellipse fill="none" stroke="black" cx="670" cy="-162" rx="72.29" ry="18"/>
<text text-anchor="middle" x="670" y="-158.3" font-family="Times-Roman" font-size="14.00">hydra.service</text>
</g>
<!-- hydra&#45;gen&#45;jwks.service&#45;&gt;hydra.service -->
<g id="edge21" class="edge">
<title>hydra&#45;gen&#45;jwks.service&#45;&gt;hydra.service</title>
<path fill="none" stroke="#a8a8a8" d="M670,-215.7C670,-207.98 670,-198.71 670,-190.11"/>
<polygon fill="#a8a8a8" stroke="#a8a8a8" points="673.5,-190.1 670,-180.1 666.5,-190.1 673.5,-190.1"/>
</g>
<!-- coresmd&#45;coredns.service -->
<g id="node15" class="node">
<title>coresmd&#45;coredns.service</title>
<ellipse fill="none" stroke="black" cx="287" cy="-594" rx="123.48" ry="18"/>
<text text-anchor="middle" x="287" y="-590.3" font-family="Times-Roman" font-size="14.00">coresmd&#45;coredns.service</text>
</g>
<!-- coresmd&#45;coredns.service&#45;&gt;haproxy.service -->
<g id="edge20" class="edge">
<title>coresmd&#45;coredns.service&#45;&gt;haproxy.service</title>
<path fill="none" stroke="#a8a8a8" d="M319.82,-576.59C339.68,-566.66 365.15,-553.92 386.28,-543.36"/>
<polygon fill="#a8a8a8" stroke="#a8a8a8" points="387.97,-546.43 395.35,-538.83 384.84,-540.17 387.97,-546.43"/>
</g>
<!-- hydra.service&#45;&gt;hydra&#45;migrate.service -->
<g id="edge30" class="edge">
<title>hydra.service&#45;&gt;hydra&#45;migrate.service</title>
<path fill="none" stroke="black" d="M661.53,-144.05C657.5,-136.01 652.6,-126.2 648.11,-117.23"/>
<polygon fill="black" stroke="black" points="651.24,-115.65 643.64,-108.28 644.98,-118.78 651.24,-115.65"/>
</g>
<!-- step&#45;ca.service -->
<g id="node18" class="node">
<title>step&#45;ca.service</title>
<ellipse fill="none" stroke="black" cx="843" cy="-90" rx="79.09" ry="18"/>
<text text-anchor="middle" x="843" y="-86.3" font-family="Times-Roman" font-size="14.00">step&#45;ca.service</text>
</g>
<!-- hydra.service&#45;&gt;step&#45;ca.service -->
<g id="edge31" class="edge">
<title>hydra.service&#45;&gt;step&#45;ca.service</title>
<path fill="none" stroke="#a8a8a8" d="M706.27,-146.33C732.53,-135.7 768.24,-121.25 796.58,-109.78"/>
<polygon fill="#a8a8a8" stroke="#a8a8a8" points="797.93,-113.01 805.89,-106.02 795.3,-106.52 797.93,-113.01"/>
</g>
<!-- openchami.target -->
<g id="node17" class="node">
<title>openchami.target</title>
<ellipse fill="none" stroke="black" cx="516" cy="-666" rx="90.18" ry="18"/>
<text text-anchor="middle" x="516" y="-662.3" font-family="Times-Roman" font-size="14.00">openchami.target</text>
</g>
<!-- openchami.target&#45;&gt;opaal.service -->
<g id="edge23" class="edge">
<title>openchami.target&#45;&gt;opaal.service</title>
<path fill="none" stroke="black" d="M582.99,-653.87C646.2,-643.31 743.59,-626.88 828,-612 837.02,-610.41 846.53,-608.7 855.88,-607.01"/>
<polygon fill="black" stroke="black" points="856.73,-610.41 865.94,-605.18 855.48,-603.53 856.73,-610.41"/>
</g>
<!-- openchami.target&#45;&gt;coresmd&#45;coredhcp.service -->
<g id="edge24" class="edge">
<title>openchami.target&#45;&gt;coresmd&#45;coredhcp.service</title>
<path fill="none" stroke="black" d="M535.12,-648.05C545.05,-639.26 557.33,-628.38 568.18,-618.76"/>
<polygon fill="black" stroke="black" points="570.62,-621.28 575.78,-612.03 565.97,-616.04 570.62,-621.28"/>
</g>
<!-- openchami.target&#45;&gt;haproxy.service -->
<g id="edge27" class="edge">
<title>openchami.target&#45;&gt;haproxy.service</title>
<path fill="none" stroke="black" d="M492.31,-648.4C480.29,-638.94 466.31,-626.15 457,-612 444.58,-593.12 436.81,-568.61 432.31,-550.08"/>
<polygon fill="black" stroke="black" points="435.69,-549.2 430.07,-540.22 428.87,-550.75 435.69,-549.2"/>
</g>
<!-- openchami.target&#45;&gt;cloud&#45;init&#45;server.service -->
<g id="edge22" class="edge">
<title>openchami.target&#45;&gt;cloud&#45;init&#45;server.service</title>
<path fill="none" stroke="black" d="M425.76,-664.36C330.79,-661.59 190.24,-650.8 155,-612 122.09,-575.76 130.42,-513.89 138.99,-478.32"/>
<polygon fill="black" stroke="black" points="142.5,-478.75 141.62,-468.19 135.72,-476.99 142.5,-478.75"/>
</g>
<!-- openchami.target&#45;&gt;smd.service -->
<g id="edge28" class="edge">
<title>openchami.target&#45;&gt;smd.service</title>
<path fill="none" stroke="black" d="M431.95,-659.25C285.73,-646.92 0,-611.5 0,-523 0,-523 0,-523 0,-449 0,-381.57 210.07,-336.35 320.27,-317.27"/>
<polygon fill="black" stroke="black" points="321.02,-320.69 330.28,-315.56 319.84,-313.79 321.02,-320.69"/>
</g>
<!-- openchami.target&#45;&gt;bss.service -->
<g id="edge25" class="edge">
<title>openchami.target&#45;&gt;bss.service</title>
<path fill="none" stroke="black" d="M592.36,-656.35C647.63,-648.33 715.55,-634.23 733,-612 766.02,-569.95 722.33,-508.67 692.54,-475.14"/>
<polygon fill="black" stroke="black" points="695.01,-472.67 685.69,-467.64 689.84,-477.38 695.01,-472.67"/>
</g>
<!-- openchami.target&#45;&gt;coresmd&#45;coredns.service -->
<g id="edge29" class="edge">
<title>openchami.target&#45;&gt;coresmd&#45;coredns.service</title>
<path fill="none" stroke="#a8a8a8" d="M468.83,-650.58C433.73,-639.85 385.55,-625.12 347.6,-613.52"/>
<polygon fill="#a8a8a8" stroke="#a8a8a8" points="348.27,-610.07 337.69,-610.49 346.23,-616.76 348.27,-610.07"/>
</g>
<!-- openchami.target&#45;&gt;step&#45;ca.service -->
<g id="edge26" class="edge">
<title>openchami.target&#45;&gt;step&#45;ca.service</title>
<path fill="none" stroke="black" d="M601.39,-659.87C689.45,-649.41 814,-617.85 814,-523 814,-523 814,-523 814,-233 814,-192.21 825.63,-146.15 834.16,-117.84"/>
<polygon fill="black" stroke="black" points="837.51,-118.84 837.13,-108.26 830.82,-116.77 837.51,-118.84"/>
</g>
</g>
</svg>
